<svg width="152" height="152" viewBox="0 0 152 152" fill="none" xmlns="http://www.w3.org/2000/svg">
<g clip-path="url(#clip0_245_204)">
<path d="M25.3137 72.3435C25.3137 37.3597 53.6731 9 88.6565 9C123.64 9 152 37.3597 152 72.3435C152 107.327 123.64 135.686 88.6565 135.686C86.9896 135.686 85.3379 135.622 83.7045 135.493C86.3803 132.673 88.661 129.473 90.4552 125.985C97.1229 124.497 103.48 114.873 107.27 100.842L94.5168 100.84C94.0057 97.5273 93.1 94.3448 91.8485 91.3422L109.315 91.3435C110.288 85.4522 110.833 79.0536 110.833 72.3435C110.833 67.969 110.602 63.7276 110.171 59.673H67.1428C66.8566 62.371 66.6577 65.1513 66.5652 68.0064C63.555 67.0285 60.3928 66.3882 57.1229 66.1349C57.2236 63.948 57.3775 61.7915 57.582 59.6724L36.4065 59.673L36.3141 59.6673C35.5294 62.9188 35.0398 66.2863 34.8758 69.7386L34.827 71.7507L34.8517 70.6278C31.426 72.4106 28.2828 74.6615 25.5043 77.2968C25.3783 75.6621 25.3137 74.0104 25.3137 72.3435ZM134.347 100.844L117.104 100.845C115.054 109.292 112.092 116.676 108.417 122.445C119.199 118.189 128.277 110.554 134.347 100.844ZM141.027 59.7813L140.997 59.6724L140.907 59.673L119.732 59.6724C120.128 63.7726 120.333 68.0108 120.333 72.3435C120.333 78.9466 119.856 85.3319 118.954 91.3428L139.051 91.3454C141.28 85.4364 142.5 79.0321 142.5 72.3435C142.5 68.0178 141.99 63.8118 141.027 59.7813ZM108.555 22.2963L108.41 22.2411C112.987 29.412 116.45 39.0762 118.434 50.1772L137.739 50.1749C132.01 37.5091 121.522 27.4562 108.555 22.2963ZM89.3893 18.5336L88.6565 18.5C80.3852 18.5 72.2773 31.391 68.5723 50.1746H108.742C105.146 31.9458 97.4035 19.2667 89.3893 18.5336ZM68.2201 23.3441L68.8965 22.2415C55.867 27.3847 45.3245 37.4641 39.5745 50.1749L58.8791 50.1772C60.7639 39.6357 63.9819 30.3897 68.2201 23.3441ZM19 107.167C19 87.9285 34.5952 72.3333 53.8333 72.3333C73.0715 72.3333 88.6667 87.9285 88.6667 107.167C88.6667 126.405 73.0715 142 53.8333 142C34.5952 142 19 126.405 19 107.167ZM53.8333 107.167H41.1667C39.418 107.167 38 108.585 38 110.333C38 112.083 39.418 113.5 41.1667 113.5H57C58.7303 113.5 60.1363 112.112 60.166 110.39L60.1667 110.333V91.3327C60.1667 89.5841 58.7486 88.166 57 88.166C55.2514 88.166 53.8333 89.5841 53.8333 91.3327V107.167Z" fill="#212121"/>
</g>
<defs>
<clipPath id="clip0_245_204">
<rect width="152" height="152" fill="white"/>
</clipPath>
</defs>
</svg>
