<svg width="24" height="20" viewBox="0 0 24 20" fill="none" xmlns="http://www.w3.org/2000/svg">
<path d="M0 2.5C0 1.83696 0.245833 1.20107 0.683417 0.732233C1.121 0.263392 1.71449 0 2.33333 0H21C21.6188 0 22.2123 0.263392 22.6499 0.732233C23.0875 1.20107 23.3333 1.83696 23.3333 2.5V17.5C23.3333 18.163 23.0875 18.7989 22.6499 19.2678C22.2123 19.7366 21.6188 20 21 20H2.33333C1.71449 20 1.121 19.7366 0.683417 19.2678C0.245833 18.7989 0 18.163 0 17.5V2.5ZM4.1055 2.5L11.6667 9.58875L19.2278 2.5H4.1055ZM21 4.16125L12.4355 12.1912C12.2228 12.391 11.9495 12.5011 11.6667 12.5011C11.3838 12.5011 11.1106 12.391 10.8978 12.1912L2.33333 4.16125V17.5H21V4.16125Z" fill="#008947"/>
</svg>
