<svg width="152" height="152" viewBox="0 0 152 152" fill="none" xmlns="http://www.w3.org/2000/svg">
<path d="M108.329 14C109.855 14 111.273 14.7313 112.16 15.9412L112.507 16.4883L133.176 54.6686L133.416 55.2569L133.493 55.5091L133.62 56.1563L133.657 56.7511C133.657 57.1884 133.598 57.6118 133.487 58.0139L133.187 58.812L132.949 59.2465C132.916 59.2991 132.883 59.351 132.849 59.4023C132.801 59.4726 132.75 59.5442 132.698 59.6126L132.693 59.6189C132.623 59.7114 132.549 59.8026 132.471 59.8906L132.593 59.7329L124.526 68.895C121.845 66.9455 118.711 65.5826 115.31 64.9935L118.387 61.5013H99.547L74.7596 124.981C74.0274 126.857 72.2344 128.004 70.335 128.004H70.3173C70.1222 128.004 69.9252 127.991 69.7289 127.965L69.6953 127.963L69.6662 127.957C69.4477 127.926 69.2292 127.879 69.0119 127.816L68.9486 127.802C68.5673 127.692 68.1962 127.531 67.8491 127.32L67.7908 127.273C67.4925 127.094 67.2139 126.874 66.9605 126.619L8.12793 59.8241L7.96174 59.617L7.70796 59.2465C7.35658 58.679 7.12167 58.0324 7.03604 57.3393L7 56.7511L7.01805 56.334L7.10172 55.7719C7.14092 55.5824 7.19095 55.4003 7.25119 55.2229L7.39572 54.8524L7.57306 54.4893L28.1503 16.4883C28.8767 15.1468 30.1951 14.2478 31.6813 14.044L32.3274 14H108.329ZM89.3482 61.5013H51.3218L70.328 110.187L70.335 110.17V110.193L89.3482 61.5013ZM41.1312 61.5013H22.2574L56.148 99.9709L41.1312 61.5013ZM51.1508 23.5002H35.1521L19.7113 52.001H42.0306L51.1508 23.5002ZM79.5243 23.5002H61.1255L51.9995 52.001H88.6388L79.5243 23.5002ZM105.498 23.5002H89.5002L98.6204 52.001H120.927L105.498 23.5002ZM127.337 86.8353C127.337 95.5799 120.247 102.669 111.503 102.669C102.758 102.669 95.669 95.5799 95.669 86.8353C95.669 78.0906 102.758 71.0015 111.503 71.0015C120.247 71.0015 127.337 78.0906 127.337 86.8353ZM140.004 120.878C140.004 130.736 131.861 140.67 111.503 140.67C91.145 140.67 83.002 130.773 83.002 120.878V120.225C83.002 114.024 88.0289 109.003 94.2294 109.003H128.776C134.977 109.003 140.004 114.025 140.004 120.225V120.878Z" fill="#212121"/>
</svg>
