<svg width="20" height="20" viewBox="0 0 20 20" fill="none" xmlns="http://www.w3.org/2000/svg">
<path d="M18.8333 20C16.5185 20 14.2315 19.4954 11.9722 18.4861C9.71296 17.4769 7.65741 16.0463 5.80556 14.1944C3.9537 12.3426 2.52315 10.287 1.51389 8.02778C0.50463 5.76852 0 3.48148 0 1.16667C0 0.833333 0.111111 0.555556 0.333333 0.333333C0.555556 0.111111 0.833333 0 1.16667 0H5.66667C5.92593 0 6.15741 0.087963 6.36111 0.263889C6.56482 0.439815 6.68519 0.648148 6.72222 0.888889L7.44444 4.77778C7.48148 5.07407 7.47222 5.32407 7.41667 5.52778C7.36111 5.73148 7.25926 5.90741 7.11111 6.05556L4.41667 8.77778C4.78704 9.46296 5.22685 10.125 5.73611 10.7639C6.24537 11.4028 6.80556 12.0185 7.41667 12.6111C7.99074 13.1852 8.59259 13.7176 9.22222 14.2083C9.85185 14.6991 10.5185 15.1481 11.2222 15.5556L13.8333 12.9444C14 12.7778 14.2176 12.6528 14.4861 12.5694C14.7546 12.4861 15.0185 12.463 15.2778 12.5L19.1111 13.2778C19.3704 13.3519 19.5833 13.4861 19.75 13.6806C19.9167 13.875 20 14.0926 20 14.3333V18.8333C20 19.1667 19.8889 19.4444 19.6667 19.6667C19.4444 19.8889 19.1667 20 18.8333 20ZM3.36111 6.66667L5.19444 4.83333L4.72222 2.22222H2.25C2.34259 2.98148 2.47222 3.73148 2.63889 4.47222C2.80556 5.21296 3.0463 5.94444 3.36111 6.66667ZM13.3056 16.6111C14.0278 16.9259 14.7639 17.1759 15.5139 17.3611C16.2639 17.5463 17.0185 17.6667 17.7778 17.7222V15.2778L15.1667 14.75L13.3056 16.6111Z" fill="#066289"/>
</svg>
