<svg width="106" height="106" viewBox="0 0 106 106" fill="none" xmlns="http://www.w3.org/2000/svg">
<path d="M48.5099 9.20812L48.532 9.24041C50.0553 9.08149 51.6021 9 53.1678 9C77.5613 9 97.3357 28.7746 97.3357 53.1679C97.3357 77.5609 77.5613 97.3357 53.1678 97.3357C38.9932 97.3357 26.378 90.6584 18.2963 80.2776L18.2849 80.2754L18.287 80.2662C12.4665 72.7846 9 63.3808 9 53.1679C9 30.3686 26.2748 11.604 48.4494 9.24906L48.5099 9.20812ZM53.1678 15.6252C52.9328 15.6252 52.6983 15.6273 52.4642 15.6316C53.0053 16.7102 53.587 17.9851 54.1148 19.3874C55.6469 23.4584 57.0555 29.4625 54.556 34.7846C52.2478 39.6997 48.2634 40.9713 45.3245 41.7306L44.9504 41.8271C42.0516 42.5744 40.9369 42.8617 40.1238 44.0962C39.3775 45.2291 39.4905 46.6681 40.3949 49.6154C40.4585 49.8226 40.5272 50.0416 40.599 50.27C40.9572 51.4113 41.389 52.7871 41.6141 54.0808C41.8941 55.6903 41.9732 57.7366 40.9425 59.7144C39.9201 61.6763 38.5648 63.0138 36.9635 63.8861C35.4594 64.7058 33.9016 65.0163 32.736 65.223L32.3254 65.2955C30.0513 65.6956 28.9635 65.8873 27.9041 67.0224C27.0816 67.9031 26.5508 69.4592 26.2408 71.7842C26.1146 72.7302 26.0388 73.6684 25.9604 74.6383L25.9182 75.1555C25.83 76.2257 25.7205 77.4575 25.4799 78.5149L25.4786 78.5211C32.3422 86.0128 42.2064 90.7105 53.1678 90.7105C60.1331 90.7105 66.6553 88.8135 72.2466 85.5084C71.8119 85.0659 71.3402 84.5465 70.8751 83.9608C69.3756 82.0731 67.4089 78.821 68.0912 74.9823C68.419 73.1366 69.4083 71.5911 70.3646 70.4061C71.3389 69.1986 72.5146 68.0829 73.5429 67.1364C73.7871 66.9116 74.0212 66.6978 74.2456 66.4929C75.0327 65.7742 75.7014 65.1634 76.2738 64.564C77.037 63.7642 77.2031 63.4038 77.2119 63.3852C77.5118 62.3928 77.1439 61.6896 76.7433 61.3795C76.5419 61.2241 76.272 61.111 75.905 61.1083C75.5349 61.1053 74.9346 61.2161 74.1334 61.724C73.2072 62.3106 71.8596 62.6728 70.4419 62.1021C69.2608 61.6264 68.6067 60.7161 68.2927 60.1967C67.6571 59.146 67.2998 57.7843 67.0674 56.7856C66.8881 56.0154 66.7167 55.1408 66.5608 54.3432C66.4981 54.0238 66.438 53.7164 66.3806 53.4333C66.1576 52.33 65.9694 51.5416 65.7883 51.0518C65.7883 51.0518 65.7636 50.9917 65.7035 50.8822C65.6386 50.7629 65.5467 50.6105 65.4209 50.4193C65.1647 50.0293 64.8299 49.5713 64.4152 49.0218C64.2645 48.8222 64.1024 48.6097 63.9328 48.3871C63.2213 47.4543 62.3733 46.343 61.6525 45.2441C60.7876 43.9262 59.8102 42.204 59.501 40.3673C59.3372 39.3939 59.3398 38.2698 59.744 37.1278C60.1574 35.9584 60.9126 34.9967 61.8927 34.2614C64.0282 32.66 67.1646 29.0824 69.9463 25.6087C71.2166 24.0225 72.3517 22.5364 73.1966 21.4084C67.4005 17.7453 60.5315 15.6252 53.1678 15.6252ZM78.4645 25.427C77.5918 26.5906 76.4257 28.1165 75.1175 29.7499C72.4599 33.0687 68.9371 37.1915 66.0653 39.4113C66.1775 39.848 66.5083 40.568 67.1915 41.609C67.7706 42.4915 68.4322 43.3602 69.1305 44.2766C69.3187 44.5233 69.5108 44.7755 69.7029 45.0304C70.4644 46.0392 71.5196 47.4468 72.0036 48.7572C72.3844 49.7886 72.6578 51.0478 72.8746 52.1202C72.951 52.4987 73.0217 52.8604 73.0897 53.2085C73.2023 53.7844 73.3079 54.3233 73.4201 54.84C76.0781 54.0817 78.7282 54.5397 80.7961 56.1386C83.4842 58.2171 84.6065 61.8199 83.554 65.3016C83.0712 66.8992 81.9463 68.2163 81.0664 69.1385C80.32 69.9203 79.4252 70.7365 78.6138 71.4763C78.4133 71.6596 78.2163 71.8394 78.0294 72.0112C77.0136 72.9462 76.1594 73.7748 75.5212 74.5658C74.8648 75.3794 74.659 75.8878 74.614 76.1413C74.4426 77.1064 74.9125 78.3917 76.0631 79.8399C76.5847 80.4967 77.1404 81.0501 77.5714 81.4419C77.6222 81.4878 77.6712 81.5316 77.7176 81.5722C85.6753 74.6882 90.7105 64.5159 90.7105 53.1679C90.7105 42.1789 85.9894 32.2926 78.4645 25.427ZM15.6252 53.1679C15.6252 59.3443 17.1166 65.1718 19.7589 70.3112C20.1338 67.8492 20.9162 64.799 23.061 62.5014C25.7103 59.6632 28.9601 59.131 31.003 58.7966C31.2074 58.763 31.4008 58.7312 31.5792 58.6999C32.6732 58.5055 33.3059 58.3342 33.794 58.0683C34.1849 57.8554 34.6235 57.5042 35.0673 56.6527C35.1329 56.5268 35.2542 56.1779 35.0869 55.2164C34.9438 54.3935 34.6753 53.5327 34.3239 52.4064C34.2411 52.1405 34.1528 51.8574 34.0612 51.5588C33.2434 48.8942 31.9364 44.4822 34.591 40.4519C36.895 36.954 40.6008 36.0598 42.9532 35.4921C43.2082 35.4306 43.4474 35.3729 43.6671 35.3161C46.1535 34.6737 47.5687 34.0782 48.5593 31.9684C49.8641 29.1903 49.3027 25.4098 47.914 21.7212C47.2559 19.9722 46.4834 18.4354 45.8717 17.3324C45.6796 16.9861 45.5051 16.6859 45.3576 16.4387C28.3719 20.0328 15.6252 35.1117 15.6252 53.1679Z" fill="#212121"/>
</svg>
