<svg width="127" height="127" viewBox="0 0 127 127" fill="none" xmlns="http://www.w3.org/2000/svg">
<path d="M114 20.5833C114 9.21544 104.784 0 93.4167 0L20.5833 0C9.21544 0 0 9.21544 0 20.5833L0 93.4167C0 104.784 9.21544 114 20.5833 114H64.4214C63.6893 111.678 63.3333 109.276 63.3333 106.875V106.223C63.3333 105.641 63.3618 105.067 63.4169 104.5H20.5833C14.4622 104.5 9.5 99.5378 9.5 93.4167L9.5 34.8333L104.5 34.8333V51.5844C108.149 52.6705 111.404 54.6712 114 57.3198V20.5833ZM20.5833 9.5L93.4167 9.5C99.5378 9.5 104.5 14.4622 104.5 20.5833V25.3333L9.5 25.3333V20.5833C9.5 14.4622 14.4622 9.5 20.5833 9.5ZM114 72.8333C114 81.5778 106.911 88.6667 98.1667 88.6667C89.4222 88.6667 82.3333 81.5778 82.3333 72.8333C82.3333 64.0889 89.4222 57 98.1667 57C106.911 57 114 64.0889 114 72.8333ZM126.667 106.875C126.667 116.733 118.524 126.667 98.1667 126.667C77.8094 126.667 69.6667 116.77 69.6667 106.875V106.223C69.6667 100.022 74.6934 95 80.8938 95H115.44C121.64 95 126.667 100.022 126.667 106.223V106.875Z" fill="#212121"/>
</svg>
